<svg width="40" height="40" viewBox="0 0 40 40" fill="none" xmlns="http://www.w3.org/2000/svg">
<path d="M7.34375 20.01C9.32523 20.01 10.9375 18.6081 10.9375 16.885C10.9375 15.1617 9.32523 13.76 7.34375 13.76C5.36227 13.76 3.75 15.1617 3.75 16.885C3.75 18.6081 5.36227 20.01 7.34375 20.01ZM7.34375 15.3225C8.46375 15.3225 9.375 16.0232 9.375 16.885C9.375 17.7465 8.46375 18.4475 7.34375 18.4475C6.22375 18.4475 5.3125 17.7465 5.3125 16.885C5.3125 16.0232 6.22375 15.3225 7.34375 15.3225ZM14.0625 26.4904C13.8571 26.4904 13.6555 26.574 13.5102 26.7196C13.3642 26.8664 13.282 27.0647 13.2812 27.2717C13.2812 27.4779 13.3648 27.6788 13.5102 27.824C13.6555 27.9702 13.8571 28.0529 14.0625 28.0529C14.2679 28.0529 14.4695 27.9702 14.6148 27.824C14.7602 27.6788 14.8438 27.4779 14.8438 27.2717C14.843 27.0647 14.7608 26.8664 14.6148 26.7196C14.4681 26.5735 14.2696 26.4911 14.0625 26.4904Z" fill="white"/>
<path d="M39.9002 7.96844C39.8735 7.80783 39.7972 7.6596 39.682 7.54448C39.5669 7.42935 39.4187 7.35308 39.258 7.32633C36.933 6.93844 34.5498 7.70203 32.883 9.36859L30.7859 11.4658L24.6872 10.8841V9.53125C24.6872 7.72188 23.2153 6.25 21.4059 6.25H17.1091V1.5625H17.7081C18.1396 1.5625 18.4894 1.21273 18.4894 0.78125C18.4894 0.349766 18.1396 0 17.7081 0H6.97906C6.54781 0 6.19781 0.349766 6.19781 0.78125C6.19781 1.21273 6.54781 1.5625 6.97906 1.5625H7.57812V6.25H3.28125C1.47187 6.25 0 7.72188 0 9.53125V13.7601C0 14.1913 0.349766 14.5413 0.78125 14.5413C1.21273 14.5413 1.5625 14.1913 1.5625 13.7601V9.53125C1.5625 8.58336 2.33336 7.8125 3.28125 7.8125H21.4062C22.3541 7.8125 23.125 8.58336 23.125 9.53125V10.7352L17.9721 10.2435C17.8575 10.2327 17.7419 10.2473 17.6336 10.2863C17.5253 10.3253 17.4269 10.3877 17.3455 10.4691L15.0805 12.7341C14.9938 12.8208 14.9288 12.9267 14.8906 13.0432C14.8524 13.1598 14.8422 13.2836 14.8609 13.4048C14.8794 13.5261 14.9262 13.6413 14.9976 13.7411C15.069 13.8409 15.1628 13.9225 15.2716 13.9792L17.3657 15.0711L16.9064 15.5305C16.6012 15.8355 16.6012 16.3302 16.9064 16.6355C17.059 16.788 17.2589 16.864 17.4587 16.864C17.6586 16.864 17.8589 16.788 18.0115 16.6355L18.8177 15.8288L20.592 16.7541L20.1587 17.1872C19.8538 17.4923 19.8538 17.987 20.1587 18.2923C20.2312 18.3649 20.3173 18.4226 20.4122 18.4619C20.507 18.5011 20.6087 18.5213 20.7113 18.5212C20.8139 18.5213 20.9156 18.5011 21.0103 18.4618C21.1051 18.4226 21.1912 18.3649 21.2637 18.2923L22.0444 17.5116L23.8162 18.4357L20.5319 21.72L17.6809 21.0651C17.5519 21.0354 17.4175 21.0389 17.2902 21.0755C17.163 21.112 17.0471 21.1802 16.9534 21.2738L14.8615 23.366H4.76562C4.33414 23.366 3.98438 23.7159 3.98438 24.1473V29.2807C3.98438 31.0559 5.42844 32.5 7.20367 32.5H17.4838C19.219 32.5 20.6372 31.1197 20.7001 29.3994L22.2315 32.5309C22.2957 32.6623 22.3956 32.773 22.5197 32.8504C22.6438 32.9278 22.7871 32.9688 22.9334 32.9688C22.9984 32.9688 23.0627 32.9596 23.125 32.9441V33.5938C23.125 34.5416 22.3541 35.3125 21.4062 35.3125H3.28125C2.33336 35.3125 1.5625 34.5416 1.5625 33.5938V20.0101C1.5625 19.5785 1.21273 19.2288 0.78125 19.2288C0.349766 19.2288 0 19.5785 0 20.0101V33.5938C0 35.4031 1.47187 36.875 3.28125 36.875H5V37.6562C5 38.9487 6.05133 40 7.34375 40C8.63617 40 9.6875 38.9487 9.6875 37.6562V36.875H15V37.6562C15 38.9487 16.0513 40 17.3438 40C18.6362 40 19.6875 38.9487 19.6875 37.6562V36.875H21.4062C23.2156 36.875 24.6875 35.4031 24.6875 33.5938V31.5381L25.9527 30.2728C26.0464 30.1791 26.1148 30.063 26.1513 29.9356C26.1878 29.8082 26.1913 29.6735 26.1615 29.5444L25.5029 26.6983L28.7909 23.4103L29.715 25.1822L28.9343 25.9628C28.6291 26.2677 28.6291 26.7624 28.9343 27.0675C29.0067 27.1402 29.0928 27.1978 29.1876 27.2371C29.2824 27.2764 29.384 27.2965 29.4866 27.2964C29.5893 27.2965 29.691 27.2764 29.7858 27.2371C29.8807 27.1978 29.9669 27.1402 30.0394 27.0675L30.4724 26.6345L31.3977 28.4085L30.5911 29.2151C30.2863 29.5202 30.2863 30.0149 30.5911 30.3202C30.6636 30.3928 30.7498 30.4504 30.8446 30.4896C30.9395 30.5288 31.0412 30.5489 31.1438 30.5487C31.2464 30.5488 31.348 30.5287 31.4428 30.4894C31.5375 30.4502 31.6237 30.3927 31.6962 30.3202L32.1552 29.8608L33.2473 31.9549C33.3041 32.0636 33.3857 32.1575 33.4854 32.2288C33.5852 32.3001 33.7003 32.347 33.8216 32.3656C33.9428 32.3842 34.0667 32.374 34.1832 32.3359C34.2998 32.2977 34.4057 32.2327 34.4925 32.146L36.7575 29.881C36.8389 29.7996 36.9014 29.7012 36.9403 29.5928C36.9792 29.4844 36.9937 29.3688 36.9827 29.2541L35.7605 16.4405L37.8577 14.3433C39.5245 12.6764 40.2881 10.2933 39.9002 7.96844ZM9.14062 1.5625H15.5469V6.25H9.14062V1.5625ZM8.125 37.6562C8.125 38.0872 7.77469 38.4375 7.34375 38.4375C6.91281 38.4375 6.5625 38.0872 6.5625 37.6562V36.875H8.125V37.6562ZM18.125 37.6562C18.125 38.0872 17.7747 38.4375 17.3438 38.4375C16.9128 38.4375 16.5625 38.0872 16.5625 37.6562V36.875H18.125V37.6562ZM16.9382 13.0859L18.1903 11.8341L29.353 12.8988L24.9744 17.2775L16.9382 13.0859ZM17.4838 30.9375H7.20367C6.29031 30.9375 5.54688 30.1941 5.54688 29.2807V28.0536H11.1719C11.6034 28.0536 11.9531 27.7036 11.9531 27.2723C11.9531 26.8408 11.6034 26.4911 11.1719 26.4911H5.54688V24.9286H14.5865C14.6213 24.9533 14.6576 24.9765 14.6966 24.9954L19.1406 27.1628V29.2807C19.1406 30.1941 18.3972 30.9375 17.4838 30.9375ZM35.3924 29.0363L34.1406 30.2884L29.9491 22.2522L34.3277 17.8735L35.3924 29.0363ZM28.4427 21.5487C28.4411 21.5503 28.4393 21.5521 28.4378 21.554L24.0914 25.9C23.9977 25.9938 23.9294 26.1098 23.893 26.2373C23.8565 26.3647 23.8531 26.4993 23.883 26.6284L24.5412 29.4745L23.1545 30.8615L21.0375 26.5332C20.9611 26.3768 20.8345 26.2505 20.678 26.1743L16.3659 24.071L17.7523 22.6846L20.6033 23.3395C20.7323 23.3692 20.8667 23.3656 20.994 23.3291C21.1212 23.2926 21.2371 23.2243 21.3308 23.1308L33.988 10.4736C35.1614 9.30023 36.7864 8.69602 38.4252 8.80125C38.5302 10.4407 37.9263 12.0652 36.7529 13.2385L28.4427 21.5487Z" fill="white"/>
<path d="M0.78125 17.6663C0.986641 17.6663 1.18828 17.5827 1.33359 17.4374C1.47945 17.2904 1.56167 17.092 1.5625 16.885C1.5625 16.6796 1.47891 16.4782 1.33359 16.3327C1.18828 16.1867 0.986641 16.1038 0.78125 16.1038C0.575859 16.1038 0.374219 16.1867 0.228906 16.3327C0.08286 16.4795 0.000606242 16.6779 0 16.885C0 17.0907 0.0835938 17.292 0.228906 17.4374C0.37577 17.5833 0.574203 17.6655 0.78125 17.6663Z" fill="white"/>
</svg>
